PathFileType  4	(X/Y/Z) C:\Users\antoi\Documents\MyRepositories\mobilecap\ResultsAnalysis
DataRate	CameraRate	NumFrames	NumMarkers	Units	OrigDataRate	OrigDataStartFrame	OrigNumFrames
100.0	100.0	7	51	mm	100.0	408	1631
Frame#	Time	r_knee			r_shank_antsup			r_ankle			r_calc			r_5meta			r_toe			L_knee			L_shank_antsup			L_ankle			L_calc			L_5meta			L_toe			r_sh2			r_sh3			r_sh4			L_sh2			L_sh3			r_thigh1			r_thigh2			r_thigh3			r_thigh4			r_thigh5			L_thigh1			L_thigh2			L_thigh3			L_thigh4			r.ASIS			r.PSIS			L.ASIS			L.PSIS			C7			R_Shoulder			L_Shoulder			R_Sternum			L_Sternum			R_humerus			R_elbow_med			R_elbow_lat			R_forearm			R_wrist_radius			R_wrist_ulna			L_humerus			L_elbow_med			L_elbow_lat			L_forearm			L_wrist_radius			L_wrist_ulna			R_HJC			L_HJC			R_HJC_reg			L_HJC_reg			
		X1	Y1	Z1	X2	Y2	Z2	X3	Y3	Z3	X4	Y4	Z4	X5	Y5	Z5	X6	Y6	Z6	X7	Y7	Z7	X8	Y8	Z8	X9	Y9	Z9	X10	Y10	Z10	X11	Y11	Z11	X12	Y12	Z12	X13	Y13	Z13	X14	Y14	Z14	X15	Y15	Z15	X16	Y16	Z16	X17	Y17	Z17	X18	Y18	Z18	X19	Y19	Z19	X20	Y20	Z20	X21	Y21	Z21	X22	Y22	Z22	X23	Y23	Z23	X24	Y24	Z24	X25	Y25	Z25	X26	Y26	Z26	X27	Y27	Z27	X28	Y28	Z28	X29	Y29	Z29	X30	Y30	Z30	X31	Y31	Z31	X32	Y32	Z32	X33	Y33	Z33	X34	Y34	Z34	X35	Y35	Z35	X36	Y36	Z36	X37	Y37	Z37	X38	Y38	Z38	X39	Y39	Z39	X40	Y40	Z40	X41	Y41	Z41	X42	Y42	Z42	X43	Y43	Z43	X44	Y44	Z44	X45	Y45	Z45	X46	Y46	Z46	X47	Y47	Z47	X48	Y48	Z48	X49	Y49	Z49	X50	Y50	Z50	X51	Y51	Z51	

408	4.07000000	-189.31100	518.52357	-481.26505	-167.73039	444.25452	-456.52400	-294.69112	104.80059	-468.10456	-357.80892	54.01195	-509.62128	-157.19560	37.97956	-425.90231	-122.29605	62.32844	-486.69460	-179.92194	505.11192	-795.90492	-164.96670	391.32831	-804.37184	-309.87201	98.58247	-750.66001	-380.82833	54.67949	-710.57403	-165.05711	32.59457	-794.31572	-137.05315	58.57858	-730.01828	-194.77013	334.32225	-446.23728	-240.14488	461.76164	-449.87672	-275.14251	351.01669	-444.21773	-248.74854	422.81262	-815.33568	-280.36528	307.88115	-805.42056	-352.62497	786.14471	-462.82463	-269.08850	716.63856	-467.25822	-286.89036	655.15063	-441.36977	-424.79726	696.06367	-468.57528	-330.44130	626.06624	-459.09145	-338.28173	779.09191	-838.47738	-233.66428	685.37730	-827.94850	-416.41506	695.02060	-831.59766	-309.90978	604.95224	-831.46074	-379.60344	868.46945	-523.14400	-529.18277	980.58309	-610.42633	-364.82784	866.69033	-779.23869	-525.57058	977.46641	-714.44077	-84.09807	1283.62840	-627.87022	-68.32770	1196.44380	-456.42240	-15.04952	1199.46303	-779.94221	-31.73196	1117.95631	-595.05124	-25.53848	1118.48260	-647.98177	-297.06372	1100.45565	-339.82691	-411.68476	1077.97175	-398.94602	-382.43799	1075.00423	-311.13738	-346.59285	916.45850	-330.56019	-314.56267	812.45040	-360.97911	-356.65883	812.97603	-346.85342	-226.51660	1108.71780	-918.48515	-345.50964	1114.23435	-878.15950	-312.02855	1096.06876	-948.78518	-345.30682	921.27859	-958.36460	-348.48460	824.65853	-947.60342	-384.81979	834.82619	-954.86296	-486.01258	829.84930	-534.96633	-470.46277	826.43962	-764.78315	-472.78269	833.61220	-561.61522	-466.90920	828.54425	-730.74568	
409	4.08000000	-190.39638	519.27281	-481.00489	-168.78178	444.78124	-456.32784	-294.84333	105.01134	-467.93689	-357.94065	54.05218	-509.44861	-157.19971	37.96027	-425.85519	-122.28629	62.33335	-486.63895	-180.65946	505.76055	-795.87827	-165.63204	391.61619	-804.11364	-309.92186	98.52308	-750.61834	-380.85647	54.66811	-710.56176	-165.05528	32.60674	-794.31359	-137.06080	58.57267	-730.00706	-195.56465	334.86492	-445.99273	-242.50025	461.77298	-450.24719	-276.01877	351.21945	-444.14445	-249.45567	422.99151	-815.40633	-280.80316	307.97101	-805.41524	-350.51691	789.03140	-462.77725	-267.71988	718.38578	-467.07573	-286.46592	657.39649	-441.04401	-423.98255	700.20849	-468.37303	-330.22602	628.87151	-459.07917	-335.62831	781.97095	-838.43076	-232.18682	686.73849	-827.87238	-414.74639	698.83375	-831.63253	-309.58707	607.23855	-831.09560	-376.81788	873.46637	-523.73183	-526.50823	985.46761	-610.81864	-361.90800	871.82224	-779.69509	-522.79215	982.33156	-715.11616	-84.18938	1291.95890	-628.33914	-68.05990	1205.18260	-456.71671	-14.39930	1208.33505	-780.49251	-30.39281	1126.92727	-595.19398	-24.15984	1127.36227	-648.08918	-296.20176	1106.83192	-340.54202	-410.28752	1083.21069	-399.92624	-381.38637	1080.88580	-312.38424	-345.97694	921.81671	-330.78100	-314.33057	817.43148	-360.59521	-356.50506	818.16140	-346.82900	-225.23210	1114.60999	-918.20470	-343.93529	1119.37058	-878.14996	-310.60616	1101.24722	-948.66448	-343.94569	926.34157	-957.97340	-347.39507	829.87087	-947.73841	-383.65296	839.95317	-954.84444	-483.16973	834.72416	-535.55067	-467.50050	831.42808	-765.36153	-469.94705	838.61310	-562.26097	-463.92454	833.53015	-731.30316	
410	4.09000000	-191.52031	519.97550	-480.93968	-169.85937	445.27073	-456.20002	-294.94342	105.45505	-467.66214	-358.01034	54.13671	-509.17156	-157.19579	37.97408	-425.86044	-122.28026	62.33601	-486.64643	-181.47555	506.38390	-795.88472	-166.38473	392.01841	-803.89903	-309.98098	98.48185	-750.69263	-380.86796	54.65774	-710.58515	-165.05481	32.60613	-794.31345	-137.06984	58.58570	-730.01790	-196.42298	335.39308	-445.69939	-243.71493	462.29181	-449.82164	-276.83174	351.39757	-444.11527	-250.23298	423.23227	-815.36594	-281.25104	308.12045	-805.38315	-348.38252	791.93756	-462.84989	-266.38772	720.23191	-467.07523	-286.12782	660.02324	-440.12726	-422.89367	704.21774	-468.57323	-330.04534	631.58431	-459.12282	-332.90694	784.67861	-838.10409	-230.77833	688.06011	-827.58612	-413.15424	702.49857	-831.53812	-309.20105	609.57203	-830.86985	-374.03666	878.49208	-524.13394	-523.84285	990.28063	-611.46035	-359.13440	876.52015	-779.74354	-519.97000	987.13223	-715.76878	-84.49743	1300.45624	-628.89195	-67.99340	1214.04319	-457.05942	-13.93437	1217.27323	-780.85249	-29.21816	1136.04568	-595.49951	-22.95572	1136.39630	-648.33291	-295.56526	1113.05733	-341.47785	-409.12928	1088.50260	-401.18075	-380.49895	1086.67685	-313.80483	-345.42985	927.15736	-331.08718	-314.05103	822.45079	-360.27570	-356.43755	823.17299	-347.05205	-224.06490	1120.60800	-918.02564	-342.50137	1124.46451	-878.10873	-309.27709	1106.33445	-948.41842	-342.62892	931.37549	-957.69964	-346.22037	834.96121	-947.72143	-382.69094	844.84203	-954.35299	-480.47538	839.73482	-535.87098	-464.62729	836.09026	-765.66444	-467.18071	843.41089	-562.74280	-460.91297	838.31573	-731.54264	
411	4.10000000	-192.72368	520.63113	-480.87216	-171.00638	445.77214	-456.14446	-294.91574	105.56853	-467.56776	-357.97925	54.15913	-509.07259	-157.18589	37.97717	-425.86019	-122.29370	62.31499	-486.67007	-182.35624	506.87508	-795.56014	-167.19236	392.59883	-803.88977	-310.02830	98.47487	-750.87424	-380.87655	54.62888	-710.59491	-165.05338	32.59859	-794.31384	-137.06442	58.58235	-730.00214	-197.21706	335.68891	-445.63109	-243.87795	463.01617	-448.75662	-277.66319	351.64435	-443.97935	-250.97242	423.69598	-815.34450	-281.73850	308.31297	-805.31800	-346.13661	794.90630	-463.21276	-265.03558	722.02556	-467.22850	-285.69775	662.83611	-438.84798	-421.66450	708.14562	-469.00723	-329.96539	634.24296	-459.25891	-330.21013	787.05348	-838.06311	-229.41061	689.36525	-827.33472	-411.50086	706.12472	-831.58474	-308.78617	611.99579	-830.96785	-371.68916	883.26468	-524.74833	-521.22722	995.08576	-612.31598	-356.21633	881.25107	-779.96585	-517.15934	991.76468	-716.28957	-85.02487	1309.09340	-629.42621	-68.09463	1223.08548	-457.34732	-13.64879	1226.27771	-780.96475	-28.20632	1145.34653	-595.77951	-21.91347	1145.60588	-648.57317	-295.07566	1119.25136	-342.67204	-408.10187	1093.81430	-402.66929	-379.78071	1091.98516	-315.18153	-344.95667	932.38276	-331.59417	-313.77001	827.41290	-360.21216	-356.36933	828.25014	-347.26592	-222.95978	1126.63931	-917.77431	-341.22537	1129.49236	-877.89121	-308.01496	1111.39961	-948.03947	-341.25394	936.44263	-957.54050	-344.99859	839.97891	-947.40538	-381.41976	849.91873	-954.11299	-478.05341	844.49576	-536.47967	-461.74032	840.80529	-766.23974	-464.68304	848.49524	-563.42458	-458.08802	843.11098	-731.96742	
412	4.11000000	-193.99254	521.32215	-480.67338	-172.29976	446.29320	-456.16444	-294.90472	105.39768	-467.62417	-357.95597	54.13041	-509.16496	-157.19823	37.95990	-425.85220	-122.31509	62.28390	-486.66743	-183.18324	507.42027	-795.02374	-167.96848	393.11109	-803.70236	-310.05635	98.44951	-750.97862	-380.88227	54.60242	-710.61800	-165.04894	32.58325	-794.32128	-137.05888	58.56029	-729.97877	-198.01230	335.97591	-445.75936	-244.58667	463.37897	-448.20477	-278.56127	351.94882	-443.78748	-251.60470	424.29886	-815.45629	-282.32100	308.45424	-805.14185	-343.79038	797.79476	-463.60594	-263.35314	723.58342	-467.53145	-285.23170	665.16837	-438.58606	-420.52931	712.02405	-469.40992	-329.92220	636.91652	-459.43988	-327.29581	789.28757	-838.63117	-228.05909	690.67425	-827.32551	-409.80612	709.93283	-831.76347	-308.40075	614.40818	-831.12315	-369.74969	887.79656	-525.57861	-518.66217	999.81018	-613.00702	-353.18037	886.02710	-780.28287	-514.42672	996.27301	-716.70149	-85.79119	1317.80651	-629.93985	-68.35828	1232.27023	-457.57692	-13.54109	1235.42100	-780.98860	-27.35814	1154.84208	-595.91095	-21.01208	1155.01148	-648.70848	-294.69002	1125.56115	-343.87971	-407.08373	1099.05790	-404.18354	-379.21062	1097.07323	-316.54032	-344.54703	937.57864	-332.30587	-313.56568	832.32770	-360.30745	-356.21521	833.55794	-347.33570	-221.96186	1132.60589	-917.27741	-339.99851	1134.48021	-877.55470	-306.85904	1116.48123	-947.54336	-339.78593	941.46361	-957.13062	-343.64231	844.98930	-946.85552	-379.79398	855.11354	-954.15889	-475.84766	848.96699	-537.27781	-458.88475	845.59616	-766.99541	-462.34360	853.72095	-564.25715	-455.47247	847.98251	-732.48432	
413	4.12000000	-195.26017	522.04549	-480.51745	-173.71214	446.79349	-456.26767	-295.03143	105.45603	-467.51502	-358.00604	54.14848	-509.17511	-157.19655	37.97417	-425.84717	-122.31709	62.26486	-486.65886	-183.96418	508.29275	-794.80142	-168.72233	393.38046	-803.00546	-310.07466	98.40842	-750.98163	-380.86710	54.61438	-710.72284	-165.04415	32.56119	-794.33402	-137.05863	58.55381	-729.99226	-198.93070	336.49329	-445.83174	-246.12104	463.48554	-448.42581	-279.48354	352.18220	-443.74598	-252.24462	424.74948	-815.47834	-282.99763	308.54599	-804.87557	-341.38445	800.63577	-463.82278	-261.42407	724.95086	-467.87542	-285.07607	666.95501	-439.46554	-419.44958	715.75997	-469.81815	-329.86033	639.56628	-459.68431	-324.05928	791.76174	-839.27364	-226.70738	692.00567	-827.25685	-408.08543	713.79614	-831.85992	-308.07545	616.68624	-830.82340	-367.28029	892.68157	-525.81168	-516.13351	1004.41025	-613.36420	-350.25530	890.56556	-780.18468	-511.72708	1000.79529	-717.22171	-86.77792	1326.58786	-630.49456	-68.83275	1241.52003	-457.88135	-13.62610	1244.78018	-781.19805	-26.70464	1164.47155	-596.03170	-20.21271	1164.57532	-648.90845	-294.43472	1131.94320	-345.03020	-406.11753	1104.16945	-405.74024	-378.78093	1102.33980	-318.04689	-344.16033	942.83208	-333.07848	-313.43663	837.27633	-360.46980	-356.01719	838.88629	-347.50089	-221.05168	1138.65030	-916.85615	-338.76964	1139.49073	-877.25566	-305.80805	1121.55517	-946.95263	-338.26935	946.45036	-956.50523	-342.05834	849.97086	-946.22246	-378.25843	860.06285	-953.84256	-473.31559	853.72468	-537.47689	-455.96126	850.08092	-767.15941	-459.68455	858.44795	-564.55201	-452.55660	852.59968	-732.56883	
414	4.13000000	-196.52044	522.78151	-480.50657	-175.07215	447.30280	-456.45861	-295.17225	105.67275	-467.29105	-358.06658	54.18181	-509.10261	-157.16105	38.02686	-425.84433	-122.30315	62.26070	-486.67670	-184.85346	509.15550	-794.62144	-169.53230	393.67495	-802.23085	-310.09218	98.43023	-751.05435	-380.84355	54.64003	-710.85900	-165.04372	32.53947	-794.34134	-137.05219	58.56518	-730.02454	-199.90780	337.07133	-445.81042	-247.60365	463.70048	-448.72094	-280.43133	352.24332	-443.96478	-253.07073	425.01384	-815.21238	-283.64992	308.68944	-804.64296	-339.18412	803.46918	-463.93120	-259.76067	726.39183	-468.10735	-284.68878	668.94012	-439.85406	-418.29496	719.44937	-470.24316	-329.75404	642.16869	-460.00586	-320.98979	794.43158	-839.30401	-225.34409	693.33771	-826.76772	-406.25770	717.47164	-831.82077	-307.73234	618.91428	-830.13781	-363.92949	898.04986	-525.31333	-513.65727	1008.96962	-613.63143	-347.40308	894.98458	-779.81452	-509.05237	1005.34526	-717.93248	-87.97454	1335.46392	-631.04460	-69.56010	1250.88244	-458.28876	-13.93330	1254.35918	-781.70777	-26.23130	1174.16617	-596.25763	-19.53139	1174.22294	-649.10509	-294.29719	1138.27571	-346.27851	-405.24008	1109.11002	-407.38242	-378.43477	1107.71658	-319.68054	-343.77150	948.09277	-333.78276	-313.29934	842.25579	-360.69294	-355.84694	843.95636	-347.94314	-220.17123	1144.94141	-916.75240	-337.64001	1144.53310	-876.96797	-304.81306	1126.59197	-946.35841	-336.68951	951.44779	-955.94407	-340.31461	854.84044	-945.47051	-376.82654	864.73072	-953.06741	-470.22220	858.89826	-537.08390	-452.83757	854.26033	-766.74599	-456.56965	862.71172	-564.23015	-449.14906	856.87129	-732.30374	
